<svg width="27" height="27" viewBox="0 0 27 27" fill="none" xmlns="http://www.w3.org/2000/svg">
<path d="M18.0463 14.5C18.7963 14.5 19.4563 14.09 19.7963 13.47L23.3763 6.98C23.7463 6.32 23.2663 5.5 22.5063 5.5H7.70628L6.76628 3.5H3.49628V5.5H5.49628L9.09628 13.09L7.74628 15.53C7.01628 16.87 7.97628 18.5 9.49628 18.5H21.4963V16.5H9.49628L10.5963 14.5H18.0463ZM8.65628 7.5H20.8063L18.0463 12.5H11.0263L8.65628 7.5ZM9.49628 19.5C8.39628 19.5 7.50628 20.4 7.50628 21.5C7.50628 22.6 8.39628 23.5 9.49628 23.5C10.5963 23.5 11.4963 22.6 11.4963 21.5C11.4963 20.4 10.5963 19.5 9.49628 19.5ZM19.4963 19.5C18.3963 19.5 17.5063 20.4 17.5063 21.5C17.5063 22.6 18.3963 23.5 19.4963 23.5C20.5963 23.5 21.4963 22.6 21.4963 21.5C21.4963 20.4 20.5963 19.5 19.4963 19.5Z" fill="#6E61FF"/>
</svg>
